<?xml version="1.0" encoding="utf-8"?>
<!-- Generator: Adobe Illustrator 23.1.0, SVG Export Plug-In . SVG Version: 6.00 Build 0)  -->
<svg version="1.1" id="Layer_1" xmlns="http://www.w3.org/2000/svg" xmlns:xlink="http://www.w3.org/1999/xlink" x="0px" y="0px"
	 viewBox="0 0 460 290.9" style="enable-background:new 0 0 460 290.9;" xml:space="preserve">
<style type="text/css">
	.st0{fill:#00AEEF;}
	.st1{fill:#39ADE3;}
	.st2{fill:#2AACE2;}
	.st3{font-family:'MyriadPro-Regular';}
	.st4{font-size:211.3574px;}
</style>
<g>
	<path class="st0" d="M90.2,50.7H18.6V24.9h174.1v25.8h-71.9v209.4H90.2V50.7z"/>
	<path class="st0" d="M410.5,140.1c0,81-49.2,123.9-109.2,123.9c-62.1,0-105.8-48.2-105.8-119.4C195.5,69.9,242,21,304.8,21
		C369,21,410.5,70.3,410.5,140.1z M228,143.9c0,50.3,27.2,95.3,75,95.3c48.2,0,75.4-44.3,75.4-97.7c0-46.8-24.4-95.6-75-95.6
		C253.1,45.8,228,92.2,228,143.9z"/>
</g>
<path class="st1" d="M96,254.2c23,39.5,273.4-207.9,273.4-207.9S73,214.8,96,254.2z"/>
<text transform="matrix(1 0 0 1 274.0215 249.0509)" class="st2 st3 st4">T</text>
</svg>
